<svg id="visual" viewBox="0 0 960 540" width="960" height="540" xmlns="http://www.w3.org/2000/svg" xmlns:xlink="http://www.w3.org/1999/xlink" version="1.1"><rect x="0" y="0" width="960" height="540" fill="#CF885B"></rect><defs><linearGradient id="grad1_0" x1="43.8%" y1="0%" x2="100%" y2="100%"><stop offset="14.444444444444446%" stop-color="#33372c" stop-opacity="1"></stop><stop offset="85.55555555555554%" stop-color="#33372c" stop-opacity="1"></stop></linearGradient></defs><defs><linearGradient id="grad1_1" x1="43.8%" y1="0%" x2="100%" y2="100%"><stop offset="14.444444444444446%" stop-color="#33372c" stop-opacity="1"></stop><stop offset="85.55555555555554%" stop-color="#595537" stop-opacity="1"></stop></linearGradient></defs><defs><linearGradient id="grad1_2" x1="43.8%" y1="0%" x2="100%" y2="100%"><stop offset="14.444444444444446%" stop-color="#8e7143" stop-opacity="1"></stop><stop offset="85.55555555555554%" stop-color="#595537" stop-opacity="1"></stop></linearGradient></defs><defs><linearGradient id="grad1_3" x1="43.8%" y1="0%" x2="100%" y2="100%"><stop offset="14.444444444444446%" stop-color="#8e7143" stop-opacity="1"></stop><stop offset="85.55555555555554%" stop-color="#cf885b" stop-opacity="1"></stop></linearGradient></defs><defs><linearGradient id="grad2_0" x1="0%" y1="0%" x2="56.3%" y2="100%"><stop offset="14.444444444444446%" stop-color="#33372c" stop-opacity="1"></stop><stop offset="85.55555555555554%" stop-color="#33372c" stop-opacity="1"></stop></linearGradient></defs><defs><linearGradient id="grad2_1" x1="0%" y1="0%" x2="56.3%" y2="100%"><stop offset="14.444444444444446%" stop-color="#595537" stop-opacity="1"></stop><stop offset="85.55555555555554%" stop-color="#33372c" stop-opacity="1"></stop></linearGradient></defs><defs><linearGradient id="grad2_2" x1="0%" y1="0%" x2="56.3%" y2="100%"><stop offset="14.444444444444446%" stop-color="#595537" stop-opacity="1"></stop><stop offset="85.55555555555554%" stop-color="#8e7143" stop-opacity="1"></stop></linearGradient></defs><defs><linearGradient id="grad2_3" x1="0%" y1="0%" x2="56.3%" y2="100%"><stop offset="14.444444444444446%" stop-color="#cf885b" stop-opacity="1"></stop><stop offset="85.55555555555554%" stop-color="#8e7143" stop-opacity="1"></stop></linearGradient></defs><g transform="translate(960, 0)"><path d="M0 351C-37.8 326.4 -75.7 301.7 -119.4 288.3C-163.1 274.8 -212.8 272.5 -248.2 248.2C-283.6 223.9 -304.9 177.5 -319.7 132.4C-334.4 87.4 -342.7 43.7 -351 0L0 0Z" fill="#ae7d4d"></path><path d="M0 263.3C-28.4 244.8 -56.8 226.3 -89.5 216.2C-122.3 206.1 -159.6 204.4 -186.1 186.1C-212.7 167.9 -228.7 133.1 -239.7 99.3C-250.8 65.5 -257 32.8 -263.2 0L0 0Z" fill="#72643c"></path><path d="M0 175.5C-18.9 163.2 -37.8 150.9 -59.7 144.1C-81.6 137.4 -106.4 136.3 -124.1 124.1C-141.8 111.9 -152.4 88.7 -159.8 66.2C-167.2 43.7 -171.4 21.8 -175.5 0L0 0Z" fill="#444632"></path><path d="M0 87.8C-9.5 81.6 -18.9 75.4 -29.8 72.1C-40.8 68.7 -53.2 68.1 -62 62C-70.9 56 -76.2 44.4 -79.9 33.1C-83.6 21.8 -85.7 10.9 -87.7 0L0 0Z" fill="#33372c"></path></g><g transform="translate(0, 540)"><path d="M0 -351C50.3 -351.1 100.6 -351.1 134.3 -324.3C168 -297.4 185.1 -243.7 205.8 -205.8C226.4 -167.8 250.5 -145.7 275.3 -114C300.1 -82.4 325.6 -41.2 351 0L0 0Z" fill="#ae7d4d"></path><path d="M0 -263.2C37.7 -263.3 75.5 -263.3 100.7 -243.2C126 -223.1 138.9 -182.8 154.3 -154.3C169.8 -125.9 187.9 -109.3 206.5 -85.5C225.1 -61.8 244.2 -30.9 263.3 0L0 0Z" fill="#72643c"></path><path d="M0 -175.5C25.2 -175.5 50.3 -175.6 67.2 -162.1C84 -148.7 92.6 -121.9 102.9 -102.9C113.2 -83.9 125.3 -72.9 137.7 -57C150.1 -41.2 162.8 -20.6 175.5 0L0 0Z" fill="#444632"></path><path d="M0 -87.7C12.6 -87.8 25.2 -87.8 33.6 -81.1C42 -74.4 46.3 -60.9 51.4 -51.4C56.6 -42 62.6 -36.4 68.8 -28.5C75 -20.6 81.4 -10.3 87.8 0L0 0Z" fill="#33372c"></path></g></svg>